# MagicaVoxel @ Ephtracy

# group
o 

# material
mtllib Mp40_mag_full.mtl
usemtl palette

# normals
vn -1 0 0
vn 1 0 0
vn 0 0 1
vn 0 0 -1
vn 0 -1 0
vn 0 1 0

# texcoords
vt 0.0136719 0.5
vt 0.0253906 0.5
vt 0.978516 0.5
vt 0.982422 0.5
vt 0.990234 0.5

# verts
v -23 0.1 0.1
v -23 0.1 -0.2
v -23 4.7 0.1
v -23 4.7 -0.2
v -23 4.8 0.1
v -23 4.8 -0.2
v -22.4 0.1 0.1
v -22.4 0.1 -0.2
v -22.4 0.2 0.1
v -22.4 0.2 0
v -22.4 0.2 -0.1
v -22.4 0.2 -0.2
v -22.4 4.7 0.1
v -22.4 4.7 0
v -22.4 4.7 -0.1
v -22.4 4.7 -0.2
v -22.4 4.8 0.1
v -22.4 4.8 -0.2
v -23 0.1 0.1
v -23 4.7 0.1
v -23 4.8 0.1
v -22.9 0.2 0.1
v -22.9 4.7 0.1
v -22.8 0.2 0.1
v -22.8 4.7 0.1
v -22.7 0.2 0.1
v -22.7 4.7 0.1
v -22.6 0.2 0.1
v -22.6 4.7 0.1
v -22.5 0.2 0.1
v -22.5 4.7 0.1
v -22.4 0.1 0.1
v -22.4 0.2 0.1
v -22.4 4.7 0.1
v -22.4 4.8 0.1
v -23 0.1 -0.2
v -23 4.7 -0.2
v -23 4.8 -0.2
v -22.9 0.2 -0.2
v -22.9 4.7 -0.2
v -22.8 0.2 -0.2
v -22.8 4.7 -0.2
v -22.7 0.2 -0.2
v -22.7 4.7 -0.2
v -22.6 0.2 -0.2
v -22.6 4.7 -0.2
v -22.5 0.2 -0.2
v -22.5 4.7 -0.2
v -22.4 0.1 -0.2
v -22.4 0.2 -0.2
v -22.4 4.7 -0.2
v -22.4 4.8 -0.2
v -23 0.1 0.1
v -22.4 0.1 0.1
v -23 0.1 -0.2
v -22.4 0.1 -0.2
v -23 4.8 0.1
v -22.4 4.8 0.1
v -22.9 4.8 0
v -22.6 4.8 0
v -22.5 4.8 0
v -22.9 4.8 -0.1
v -22.6 4.8 -0.1
v -22.5 4.8 -0.1
v -23 4.8 -0.2
v -22.4 4.8 -0.2

# faces
f 3/4/1 2/4/1 1/4/1
f 4/4/1 2/4/1 3/4/1
f 5/5/1 4/5/1 3/5/1
f 6/5/1 4/5/1 5/5/1
f 7/4/2 8/4/2 9/4/2
f 9/4/2 8/4/2 10/4/2
f 10/4/2 8/4/2 11/4/2
f 11/4/2 8/4/2 12/4/2
f 9/3/2 10/3/2 13/3/2
f 10/4/2 11/4/2 14/4/2
f 13/3/2 10/3/2 14/3/2
f 11/3/2 12/3/2 15/3/2
f 14/4/2 11/4/2 15/4/2
f 15/3/2 12/3/2 16/3/2
f 13/5/2 14/5/2 17/5/2
f 14/5/2 15/5/2 17/5/2
f 15/5/2 16/5/2 17/5/2
f 17/5/2 16/5/2 18/5/2
f 22/4/3 20/4/3 19/4/3
f 23/5/3 21/5/3 20/5/3
f 23/4/3 20/4/3 22/4/3
f 24/4/3 22/4/3 19/4/3
f 24/3/3 23/3/3 22/3/3
f 25/5/3 21/5/3 23/5/3
f 25/3/3 23/3/3 24/3/3
f 26/4/3 24/4/3 19/4/3
f 26/4/3 25/4/3 24/4/3
f 27/5/3 21/5/3 25/5/3
f 27/4/3 25/4/3 26/4/3
f 28/4/3 26/4/3 19/4/3
f 28/3/3 27/3/3 26/3/3
f 29/5/3 21/5/3 27/5/3
f 29/3/3 27/3/3 28/3/3
f 30/4/3 28/4/3 19/4/3
f 30/4/3 29/4/3 28/4/3
f 31/5/3 21/5/3 29/5/3
f 31/4/3 29/4/3 30/4/3
f 32/4/3 30/4/3 19/4/3
f 33/3/3 31/3/3 30/3/3
f 33/4/3 30/4/3 32/4/3
f 34/5/3 21/5/3 31/5/3
f 34/3/3 31/3/3 33/3/3
f 35/5/3 21/5/3 34/5/3
f 36/4/4 37/4/4 39/4/4
f 37/5/4 38/5/4 40/5/4
f 39/4/4 37/4/4 40/4/4
f 36/4/4 39/4/4 41/4/4
f 39/3/4 40/3/4 41/3/4
f 40/5/4 38/5/4 42/5/4
f 41/3/4 40/3/4 42/3/4
f 36/4/4 41/4/4 43/4/4
f 41/4/4 42/4/4 43/4/4
f 42/5/4 38/5/4 44/5/4
f 43/4/4 42/4/4 44/4/4
f 36/4/4 43/4/4 45/4/4
f 43/3/4 44/3/4 45/3/4
f 44/5/4 38/5/4 46/5/4
f 45/3/4 44/3/4 46/3/4
f 36/4/4 45/4/4 47/4/4
f 45/4/4 46/4/4 47/4/4
f 46/5/4 38/5/4 48/5/4
f 47/4/4 46/4/4 48/4/4
f 36/4/4 47/4/4 49/4/4
f 47/3/4 48/3/4 50/3/4
f 49/4/4 47/4/4 50/4/4
f 48/5/4 38/5/4 51/5/4
f 50/3/4 48/3/4 51/3/4
f 51/5/4 38/5/4 52/5/4
f 55/4/5 54/4/5 53/4/5
f 56/4/5 54/4/5 55/4/5
f 57/5/6 58/5/6 59/5/6
f 59/5/6 58/5/6 60/5/6
f 60/5/6 58/5/6 61/5/6
f 57/5/6 59/5/6 62/5/6
f 59/2/6 60/2/6 62/2/6
f 60/1/6 61/1/6 63/1/6
f 62/2/6 60/2/6 63/2/6
f 61/5/6 58/5/6 64/5/6
f 63/1/6 61/1/6 64/1/6
f 62/5/6 63/5/6 65/5/6
f 57/5/6 62/5/6 65/5/6
f 63/5/6 64/5/6 65/5/6
f 64/5/6 58/5/6 66/5/6
f 65/5/6 64/5/6 66/5/6
