# MagicaVoxel @ Ephtracy

# group
o 

# material
mtllib Mp40_static_bolt.mtl
usemtl palette

# normals
vn -1 0 0
vn 1 0 0
vn 0 0 1
vn 0 0 -1
vn 0 -1 0
vn 0 1 0

# texcoords
vt 0.943359 0.5
vt 0.982422 0.5

# verts
v -21.5 1.4 -0.1
v -21.5 1.4 -0.4
v -21.5 1.7 -0.1
v -21.5 1.7 -0.4
v -17.6 1.6 -0.4
v -17.6 1.6 -0.6
v -17.6 1.7 -0.4
v -17.6 1.7 -0.6
v -17.4 1.6 -0.4
v -17.4 1.6 -0.6
v -17.4 1.7 -0.4
v -17.4 1.7 -0.6
v -15.5 1.4 -0.1
v -15.5 1.4 -0.4
v -15.5 1.7 -0.1
v -15.5 1.7 -0.4
v -21.5 1.4 -0.1
v -21.5 1.7 -0.1
v -17.2 1.4 -0.1
v -17.2 1.7 -0.1
v -15.5 1.4 -0.1
v -15.5 1.7 -0.1
v -21.5 1.4 -0.4
v -21.5 1.7 -0.4
v -17.6 1.6 -0.4
v -17.6 1.7 -0.4
v -17.4 1.6 -0.4
v -17.4 1.7 -0.4
v -17.2 1.4 -0.4
v -17.2 1.7 -0.4
v -15.5 1.4 -0.4
v -15.5 1.7 -0.4
v -17.6 1.6 -0.6
v -17.6 1.7 -0.6
v -17.4 1.6 -0.6
v -17.4 1.7 -0.6
v -21.5 1.4 -0.1
v -17.2 1.4 -0.1
v -15.5 1.4 -0.1
v -21.5 1.4 -0.4
v -17.2 1.4 -0.4
v -15.5 1.4 -0.4
v -17.6 1.6 -0.4
v -17.4 1.6 -0.4
v -17.6 1.6 -0.6
v -17.4 1.6 -0.6
v -21.5 1.7 -0.1
v -17.2 1.7 -0.1
v -15.5 1.7 -0.1
v -21.5 1.7 -0.4
v -17.6 1.7 -0.4
v -17.4 1.7 -0.4
v -17.2 1.7 -0.4
v -15.5 1.7 -0.4
v -17.6 1.7 -0.6
v -17.4 1.7 -0.6

# faces
f 3/1/1 2/1/1 1/1/1
f 4/1/1 2/1/1 3/1/1
f 7/1/1 6/1/1 5/1/1
f 8/1/1 6/1/1 7/1/1
f 9/1/2 10/1/2 11/1/2
f 11/1/2 10/1/2 12/1/2
f 13/2/2 14/2/2 15/2/2
f 15/2/2 14/2/2 16/2/2
f 19/1/3 18/1/3 17/1/3
f 20/1/3 18/1/3 19/1/3
f 21/2/3 20/2/3 19/2/3
f 22/2/3 20/2/3 21/2/3
f 23/1/4 24/1/4 25/1/4
f 25/1/4 24/1/4 26/1/4
f 23/1/4 25/1/4 27/1/4
f 23/1/4 27/1/4 29/1/4
f 27/1/4 28/1/4 29/1/4
f 29/1/4 28/1/4 30/1/4
f 29/2/4 30/2/4 31/2/4
f 31/2/4 30/2/4 32/2/4
f 33/1/4 34/1/4 35/1/4
f 35/1/4 34/1/4 36/1/4
f 40/1/5 38/1/5 37/1/5
f 41/2/5 39/2/5 38/2/5
f 41/1/5 38/1/5 40/1/5
f 42/2/5 39/2/5 41/2/5
f 45/1/5 44/1/5 43/1/5
f 46/1/5 44/1/5 45/1/5
f 47/1/6 48/1/6 50/1/6
f 50/1/6 48/1/6 51/1/6
f 51/1/6 48/1/6 52/1/6
f 48/2/6 49/2/6 53/2/6
f 52/1/6 48/1/6 53/1/6
f 53/2/6 49/2/6 54/2/6
f 51/1/6 52/1/6 55/1/6
f 55/1/6 52/1/6 56/1/6
