# MagicaVoxel @ Ephtracy

# group
o 

# material
mtllib Mp40_mag_empty.mtl
usemtl palette

# normals
vn -1 0 0
vn 1 0 0
vn 0 0 1
vn 0 0 -1
vn 0 -1 0
vn 0 1 0

# texcoords
vt 0.978516 0.5
vt 0.982422 0.5
vt 0.990234 0.5

# verts
v -22.2 0.1 0.1
v -22.2 0.1 -0.2
v -22.2 4.7 0.1
v -22.2 4.7 -0.2
v -22.2 4.8 0.1
v -22.2 4.8 -0.2
v -21.7 4.7 0
v -21.7 4.7 -0.1
v -21.7 4.8 0
v -21.7 4.8 -0.1
v -22.1 4.7 0
v -22.1 4.7 -0.1
v -22.1 4.8 0
v -22.1 4.8 -0.1
v -21.6 0.1 0.1
v -21.6 0.1 -0.2
v -21.6 0.2 0.1
v -21.6 0.2 0
v -21.6 0.2 -0.1
v -21.6 0.2 -0.2
v -21.6 4.7 0.1
v -21.6 4.7 0
v -21.6 4.7 -0.1
v -21.6 4.7 -0.2
v -21.6 4.8 0.1
v -21.6 4.8 -0.2
v -22.2 0.1 0.1
v -22.2 4.7 0.1
v -22.2 4.8 0.1
v -22.1 0.2 0.1
v -22.1 4.7 0.1
v -22 0.2 0.1
v -22 4.7 0.1
v -21.9 0.2 0.1
v -21.9 4.7 0.1
v -21.8 0.2 0.1
v -21.8 4.7 0.1
v -21.7 0.2 0.1
v -21.7 4.7 0.1
v -21.6 0.1 0.1
v -21.6 0.2 0.1
v -21.6 4.7 0.1
v -21.6 4.8 0.1
v -22.1 4.7 -0.1
v -22.1 4.8 -0.1
v -21.7 4.7 -0.1
v -21.7 4.8 -0.1
v -22.1 4.7 0
v -22.1 4.8 0
v -21.7 4.7 0
v -21.7 4.8 0
v -22.2 0.1 -0.2
v -22.2 4.7 -0.2
v -22.2 4.8 -0.2
v -22.1 0.2 -0.2
v -22.1 4.7 -0.2
v -22 0.2 -0.2
v -22 4.7 -0.2
v -21.9 0.2 -0.2
v -21.9 4.7 -0.2
v -21.8 0.2 -0.2
v -21.8 4.7 -0.2
v -21.7 0.2 -0.2
v -21.7 4.7 -0.2
v -21.6 0.1 -0.2
v -21.6 0.2 -0.2
v -21.6 4.7 -0.2
v -21.6 4.8 -0.2
v -22.2 0.1 0.1
v -21.6 0.1 0.1
v -22.2 0.1 -0.2
v -21.6 0.1 -0.2
v -22.1 4.7 0
v -21.7 4.7 0
v -22.1 4.7 -0.1
v -21.7 4.7 -0.1
v -22.2 4.8 0.1
v -21.6 4.8 0.1
v -22.1 4.8 0
v -21.7 4.8 0
v -22.1 4.8 -0.1
v -21.7 4.8 -0.1
v -22.2 4.8 -0.2
v -21.6 4.8 -0.2

# faces
f 3/2/1 2/2/1 1/2/1
f 4/2/1 2/2/1 3/2/1
f 5/3/1 4/3/1 3/3/1
f 6/3/1 4/3/1 5/3/1
f 9/3/1 8/3/1 7/3/1
f 10/3/1 8/3/1 9/3/1
f 11/3/2 12/3/2 13/3/2
f 13/3/2 12/3/2 14/3/2
f 15/2/2 16/2/2 17/2/2
f 17/2/2 16/2/2 18/2/2
f 18/2/2 16/2/2 19/2/2
f 19/2/2 16/2/2 20/2/2
f 17/1/2 18/1/2 21/1/2
f 18/2/2 19/2/2 22/2/2
f 21/1/2 18/1/2 22/1/2
f 19/1/2 20/1/2 23/1/2
f 22/2/2 19/2/2 23/2/2
f 23/1/2 20/1/2 24/1/2
f 21/3/2 22/3/2 25/3/2
f 22/3/2 23/3/2 25/3/2
f 23/3/2 24/3/2 25/3/2
f 25/3/2 24/3/2 26/3/2
f 30/2/3 28/2/3 27/2/3
f 31/3/3 29/3/3 28/3/3
f 31/2/3 28/2/3 30/2/3
f 32/2/3 30/2/3 27/2/3
f 32/1/3 31/1/3 30/1/3
f 33/3/3 29/3/3 31/3/3
f 33/1/3 31/1/3 32/1/3
f 34/2/3 32/2/3 27/2/3
f 34/2/3 33/2/3 32/2/3
f 35/3/3 29/3/3 33/3/3
f 35/2/3 33/2/3 34/2/3
f 36/2/3 34/2/3 27/2/3
f 36/1/3 35/1/3 34/1/3
f 37/3/3 29/3/3 35/3/3
f 37/1/3 35/1/3 36/1/3
f 38/2/3 36/2/3 27/2/3
f 38/2/3 37/2/3 36/2/3
f 39/3/3 29/3/3 37/3/3
f 39/2/3 37/2/3 38/2/3
f 40/2/3 38/2/3 27/2/3
f 41/1/3 39/1/3 38/1/3
f 41/2/3 38/2/3 40/2/3
f 42/3/3 29/3/3 39/3/3
f 42/1/3 39/1/3 41/1/3
f 43/3/3 29/3/3 42/3/3
f 46/3/3 45/3/3 44/3/3
f 47/3/3 45/3/3 46/3/3
f 48/3/4 49/3/4 50/3/4
f 50/3/4 49/3/4 51/3/4
f 52/2/4 53/2/4 55/2/4
f 53/3/4 54/3/4 56/3/4
f 55/2/4 53/2/4 56/2/4
f 52/2/4 55/2/4 57/2/4
f 55/1/4 56/1/4 57/1/4
f 56/3/4 54/3/4 58/3/4
f 57/1/4 56/1/4 58/1/4
f 52/2/4 57/2/4 59/2/4
f 57/2/4 58/2/4 59/2/4
f 58/3/4 54/3/4 60/3/4
f 59/2/4 58/2/4 60/2/4
f 52/2/4 59/2/4 61/2/4
f 59/1/4 60/1/4 61/1/4
f 60/3/4 54/3/4 62/3/4
f 61/1/4 60/1/4 62/1/4
f 52/2/4 61/2/4 63/2/4
f 61/2/4 62/2/4 63/2/4
f 62/3/4 54/3/4 64/3/4
f 63/2/4 62/2/4 64/2/4
f 52/2/4 63/2/4 65/2/4
f 63/1/4 64/1/4 66/1/4
f 65/2/4 63/2/4 66/2/4
f 64/3/4 54/3/4 67/3/4
f 66/1/4 64/1/4 67/1/4
f 67/3/4 54/3/4 68/3/4
f 71/2/5 70/2/5 69/2/5
f 72/2/5 70/2/5 71/2/5
f 73/3/6 74/3/6 75/3/6
f 75/3/6 74/3/6 76/3/6
f 77/3/6 78/3/6 79/3/6
f 79/3/6 78/3/6 80/3/6
f 77/3/6 79/3/6 81/3/6
f 80/3/6 78/3/6 82/3/6
f 77/3/6 81/3/6 83/3/6
f 81/3/6 82/3/6 83/3/6
f 82/3/6 78/3/6 84/3/6
f 83/3/6 82/3/6 84/3/6
